<svg viewBox="274.16331 100.42710674157303 131.50923 77.36606741573033" xmlns="http://www.w3.org/2000/svg" id="Capa_2" style="max-height: 500px" width="131.50923" height="77.36606741573033"><g id="Capa_1-2"><g><rect style="fill:none;" height="264.83" width="742.99"/><g><path style="fill:#040305;" d="M477.46,137.82c.98-.85,1.47-1.93,1.47-3.23-.08-4.64-.94-8.79-2.56-12.45s-3.78-6.83-6.46-9.52c-2.69-2.68-5.78-4.72-9.28-6.1-3.5-1.38-7.12-2.07-10.86-2.07-5.04,0-9.82,1.32-14.34,3.97-4.52,2.64-8.18,6.47-10.98,11.47-2.81,5-4.21,11.04-4.21,18.13,0,6.34,1.34,11.94,4.03,16.78,2.69,4.84,6.47,8.64,11.35,11.41,4.88,2.77,10.62,4.15,17.21,4.15,4.39,0,8.52-.94,12.39-2.81,3.86-1.87,6.98-4.07,9.34-6.59,1.3-1.14,1.95-2.4,1.95-3.78,0-1.14-.41-2.12-1.22-2.93-.82-.81-1.79-1.22-2.93-1.22-1.06,0-2.12,.37-3.17,1.1-1.06,1.14-2.34,2.26-3.85,3.36-1.51,1.1-3.32,2.01-5.43,2.75-2.11,.73-4.59,1.1-7.44,1.1-4.56,0-8.55-1.04-11.96-3.11-3.42-2.07-6.08-4.9-8-8.48-1.66-3.11-2.59-6.65-2.82-10.62h44.37c1.3,0,2.44-.43,3.42-1.28m-41.43-18.73c1.91-1.87,4.07-3.25,6.47-4.15,2.4-.89,4.82-1.34,7.26-1.34,3.01,0,5.88,.65,8.61,1.95,2.73,1.3,5.04,3.16,6.95,5.56,1.91,2.4,2.99,5.27,3.23,8.6v.98h-38.34c.29-1.53,.67-2.97,1.17-4.27,1.18-3.01,2.73-5.45,4.64-7.32"/><path style="fill:#040305;" d="M553.49,137.39c0,6.34-1.4,12.01-4.21,16.96-2.81,4.97-6.59,8.87-11.35,11.72-4.76,2.85-10.11,4.27-16.05,4.27s-11.31-1.42-16.11-4.27c-4.8-2.85-8.6-6.75-11.41-11.72-2.81-4.96-4.21-10.62-4.21-16.96s1.4-12,4.21-16.96c2.81-4.96,6.61-8.87,11.41-11.72,4.8-2.85,10.17-4.27,16.11-4.27s11.29,1.42,16.05,4.27c4.76,2.85,8.54,6.76,11.35,11.72,2.81,4.96,4.21,10.62,4.21,16.96m-9.89,0c0-4.72-.96-8.85-2.87-12.39-1.91-3.54-4.52-6.34-7.81-8.42-3.3-2.08-6.98-3.11-11.04-3.11s-7.87,1.04-11.17,3.11c-3.29,2.07-5.92,4.88-7.87,8.42-1.95,3.54-2.93,7.67-2.93,12.39s.98,8.75,2.93,12.33c1.96,3.58,4.58,6.41,7.87,8.48,3.29,2.07,7.02,3.11,11.17,3.11s7.75-1.04,11.04-3.11c3.29-2.07,5.9-4.9,7.81-8.48,1.91-3.58,2.87-7.69,2.87-12.33"/><path style="fill:#040305;" d="M564.47,159.11c-.65-1.06-.96-2.18-.92-3.36,.04-1.18,.71-2.21,2.02-3.11,.89-.57,1.89-.81,2.99-.73,1.1,.08,2.09,.61,2.99,1.59,2.28,2.68,4.88,4.82,7.81,6.4,2.93,1.59,6.51,2.38,10.74,2.38,1.87-.08,3.8-.41,5.8-.98,1.99-.57,3.66-1.57,5-2.99,1.35-1.42,2.02-3.31,2.02-5.68s-.69-4.09-2.07-5.43c-1.39-1.34-3.2-2.44-5.43-3.29-2.24-.86-4.62-1.6-7.14-2.26-2.68-.73-5.33-1.54-7.93-2.44-2.6-.89-4.94-2.05-7.02-3.48-2.07-1.42-3.74-3.21-5-5.37-1.26-2.16-1.89-4.82-1.89-8,0-3.66,.99-6.83,2.99-9.52,1.99-2.68,4.65-4.76,7.99-6.22,3.33-1.47,7.04-2.2,11.1-2.2,2.28,0,4.66,.27,7.14,.79,2.48,.53,4.9,1.43,7.26,2.69,2.36,1.26,4.43,2.99,6.23,5.19,.73,.82,1.14,1.83,1.22,3.05,.08,1.22-.45,2.32-1.59,3.29-.9,.65-1.89,.96-2.99,.92-1.1-.04-2.01-.43-2.74-1.16-1.79-2.12-3.97-3.72-6.53-4.82-2.56-1.1-5.39-1.65-8.48-1.65-1.87,0-3.74,.31-5.62,.92-1.87,.61-3.44,1.57-4.7,2.87-1.26,1.3-1.9,3.13-1.9,5.49,.08,2.19,.82,3.99,2.2,5.37,1.38,1.39,3.25,2.5,5.62,3.36,2.36,.85,4.96,1.69,7.81,2.5,2.6,.65,5.1,1.4,7.5,2.26,2.4,.85,4.58,1.97,6.53,3.35,1.95,1.39,3.5,3.16,4.64,5.31,1.14,2.16,1.71,4.86,1.71,8.12,0,3.74-1.06,6.98-3.17,9.7-2.12,2.73-4.9,4.8-8.36,6.22-3.46,1.42-7.18,2.13-11.16,2.13-4.48,0-8.91-.83-13.31-2.5-4.39-1.67-8.17-4.58-11.35-8.73"/><path style="fill:#040305;" d="M653.93,104.44c4.23,0,8.01,.45,11.35,1.34,3.33,.9,5.98,2.12,7.93,3.66,1.95,1.54,2.93,3.29,2.93,5.25,0,1.14-.37,2.2-1.1,3.17-.73,.98-1.75,1.47-3.05,1.47-1.06,0-1.93-.22-2.62-.67-.69-.44-1.34-.98-1.95-1.59-.61-.61-1.45-1.2-2.5-1.77-.98-.49-2.4-.92-4.27-1.28s-3.74-.55-5.61-.55c-4.48,0-8.4,1.06-11.78,3.17-3.38,2.12-6.04,4.97-7.99,8.54-1.96,3.58-2.93,7.65-2.93,12.2s.93,8.63,2.8,12.21c1.87,3.58,4.48,6.43,7.81,8.54,3.33,2.12,7.2,3.17,11.59,3.17,2.85,0,5.11-.25,6.77-.73,1.67-.49,3.11-1.06,4.33-1.71,1.38-.81,2.46-1.63,3.23-2.44,.77-.82,1.85-1.22,3.23-1.22s2.46,.45,3.23,1.34c.77,.9,1.16,1.99,1.16,3.3,0,1.54-1.02,3.13-3.05,4.76-2.03,1.63-4.8,2.99-8.3,4.09-3.5,1.1-7.41,1.65-11.71,1.65-6.19,0-11.59-1.44-16.23-4.33-4.64-2.89-8.24-6.83-10.8-11.84-2.56-5-3.84-10.6-3.84-16.78s1.32-11.75,3.97-16.72c2.64-4.96,6.33-8.91,11.04-11.84,4.72-2.93,10.17-4.39,16.35-4.39"/></g><path style="fill:#00828d;" d="M330.95,109.72c-5.34-3.45-11.53-5.28-17.89-5.28s-12.56,1.83-17.9,5.29c-1.09,.71-1.79,1.86-1.93,3.16-.14,1.33,.32,2.64,1.26,3.58l1.79,1.79c.85,.85,1.96,1.29,3.08,1.29,.78,0,1.56-.21,2.26-.64,3.44-2.13,7.39-3.25,11.43-3.25s7.99,1.12,11.43,3.24c1.71,1.06,3.91,.79,5.35-.64l1.79-1.79c.94-.94,1.4-2.25,1.26-3.57-.14-1.3-.84-2.45-1.93-3.16"/><path style="fill:#ff5c80;" d="M307.99,158.92c-9.98-2.36-16.95-11.17-16.95-21.42,0-4.06,1.13-8.05,3.27-11.5,1.01-1.65,.76-3.76-.62-5.14l-1.79-1.79c-.91-.91-2.16-1.35-3.44-1.22-1.25,.13-2.36,.81-3.04,1.86-3.44,5.31-5.25,11.47-5.25,17.79,0,15.38,10.91,28.9,25.95,32.14,.28,.06,.57,.09,.86,.09,.93,0,1.84-.32,2.59-.92,1-.81,1.58-2.01,1.58-3.29v-2.5c0-1.94-1.33-3.67-3.15-4.1"/><path style="fill:#00828d;" d="M367.97,104.61c-18.14,0-32.89,14.75-32.89,32.89l.02,.15-.02,.16c-.14,10.32-7.59,19.27-17.71,21.28-1.38,.27-2.38,1.5-2.38,2.9v5.02c0,.88,.39,1.71,1.05,2.28,.66,.56,1.52,.8,2.36,.66,15.97-2.61,27.56-16.26,27.56-32.44,0-12.14,9.87-22.01,22.01-22.01s22.01,9.87,22.01,22.01-9.87,22.02-22.01,22.02c-3,0-5.44,2.43-5.44,5.44s2.44,5.44,5.44,5.44c18.14,0,32.89-14.76,32.89-32.89s-14.75-32.89-32.89-32.89"/><g><path style="fill:#040305;" d="M112.34,152.84h-27.13l-6.09,16.94h-8.8l24.72-64.75h7.47l24.77,64.75h-8.76l-6.18-16.94Zm-24.55-6.98h22.01l-11.03-30.28-10.98,30.28Z"/><path style="fill:#040305;" d="M143.7,169.78h-8.54V105.04h8.54v64.75Z"/><path style="fill:#040305;" d="M187.78,149.73h11.21v2.4h-11.21v17.65h-2.4v-17.65h-31.39v-1.33l30.91-45.76h2.89v44.69Zm-30.06,0h27.66v-41.8l-3.74,6.14-23.92,35.66Z"/></g><rect style="fill:#040305;" height="131.56" width="1.41" y="71.63" x="239.06"/></g></g></svg>
