<svg width="20" height="16" viewBox="0 0 20 16" fill="none" xmlns="http://www.w3.org/2000/svg">
<g clip-path="url(#clip0_16_28)">
<path fill-rule="evenodd" clip-rule="evenodd" d="M10.4897 1.21367C10.5456 0.80054 10.9026 0.5 11.3133 0.5C11.35 0.5 11.3871 0.502326 11.4243 0.506978C11.8796 0.567459 12.1999 0.98105 12.1388 1.43139C12.0781 1.88174 11.659 2.19763 11.2041 2.13762C10.7498 2.07807 10.4294 1.66401 10.4897 1.21367Z" fill="white"/>
<path fill-rule="evenodd" clip-rule="evenodd" d="M8.45485 0.535359C8.49765 0.528846 8.53951 0.525589 8.58184 0.525589C8.98542 0.525589 9.33961 0.816824 9.40263 1.22344C9.47225 1.67285 9.16087 2.09249 8.70649 2.16134C8.25259 2.2302 7.82832 1.92221 7.75823 1.47327C7.68909 1.02432 8.00094 0.604213 8.45485 0.535359Z" fill="white"/>
<path fill-rule="evenodd" clip-rule="evenodd" d="M5.61101 1.39556C5.72531 1.34206 5.84666 1.31647 5.96566 1.31647C6.27752 1.31647 6.57573 1.49046 6.71778 1.78775C6.91392 2.19855 6.73659 2.6889 6.32126 2.8829C5.90593 3.0769 5.41016 2.90151 5.21402 2.49071C5.01834 2.07991 5.19567 1.58909 5.61101 1.39556Z" fill="white"/>
<path fill-rule="evenodd" clip-rule="evenodd" d="M15.6214 2.9769C15.7855 2.78708 16.0183 2.68985 16.2526 2.68985C16.4445 2.68985 16.6369 2.75498 16.794 2.88804C17.1416 3.18393 17.1825 3.70312 16.8829 4.0474C16.5842 4.39213 16.0588 4.43168 15.7103 4.13626C15.3617 3.84083 15.3213 3.32117 15.6214 2.9769Z" fill="white"/>
<path fill-rule="evenodd" clip-rule="evenodd" d="M3.13312 3.01922C3.2921 2.87965 3.48966 2.81033 3.68627 2.81033C3.91487 2.81033 4.143 2.90338 4.30715 3.08529C4.61289 3.42444 4.58326 3.9441 4.24036 4.2465C3.89793 4.5489 3.37206 4.51913 3.06633 4.17998C2.76059 3.84129 2.79022 3.32162 3.13312 3.01922Z" fill="white"/>
<path fill-rule="evenodd" clip-rule="evenodd" d="M17.5997 4.85781C17.7394 4.76849 17.8965 4.72522 18.0517 4.72522C18.3241 4.72522 18.5913 4.85735 18.7507 5.1002C19 5.48169 18.8909 5.99065 18.5056 6.23815C18.1199 6.48519 17.6054 6.37679 17.3551 5.99577C17.1054 5.61428 17.2145 5.10531 17.5997 4.85781Z" fill="white"/>
<path fill-rule="evenodd" clip-rule="evenodd" d="M1.22013 5.26863C1.37771 5.01787 1.64958 4.8797 1.9271 4.8797C2.07667 4.8797 2.2286 4.92017 2.36548 5.00392C2.75541 5.24398 2.87488 5.75108 2.63218 6.13676C2.38947 6.5229 1.87724 6.64107 1.48683 6.40147C1.09737 6.16141 0.977895 5.65385 1.22013 5.26863Z" fill="white"/>
<path fill-rule="evenodd" clip-rule="evenodd" d="M0.0296355 7.96324C0.130764 7.59757 0.465666 7.35797 0.831141 7.35797C0.903577 7.35797 0.977895 7.36728 1.05127 7.38728C1.49436 7.50731 1.75447 7.95998 1.63359 8.39823C1.51223 8.83555 1.05504 9.09422 0.61195 8.97326C0.168864 8.85323 -0.0917191 8.40102 0.0296355 7.96324Z" fill="white"/>
<path fill-rule="evenodd" clip-rule="evenodd" d="M10.3589 2.93271C10.3984 2.64008 10.6519 2.427 10.9421 2.427C10.9685 2.427 10.9944 2.4284 11.0216 2.43212C11.3438 2.47492 11.571 2.76802 11.5273 3.08717C11.4845 3.40631 11.1881 3.63056 10.8659 3.58776C10.5423 3.54495 10.3156 3.25186 10.3589 2.93271Z" fill="white"/>
<path fill-rule="evenodd" clip-rule="evenodd" d="M8.91628 2.4521C8.94638 2.44745 8.97648 2.44559 9.00612 2.44559C9.2921 2.44559 9.54327 2.65168 9.58796 2.94013C9.63782 3.25881 9.41675 3.55609 9.09455 3.60494C8.77281 3.65379 8.47178 3.43513 8.42286 3.11692C8.37347 2.79823 8.59454 2.50095 8.91628 2.4521Z" fill="white"/>
<path fill-rule="evenodd" clip-rule="evenodd" d="M12.2691 3.29557C12.3669 3.07923 12.5823 2.95129 12.8076 2.95129C12.8885 2.95129 12.9699 2.96758 13.0484 3.00247C13.3453 3.1346 13.4784 3.4798 13.3448 3.77336C13.2121 4.06692 12.8631 4.19812 12.5659 4.06645C12.2686 3.93433 12.1355 3.58959 12.2691 3.29557Z" fill="white"/>
<path fill-rule="evenodd" clip-rule="evenodd" d="M6.90076 3.06156C6.98166 3.02387 7.06774 3.0062 7.15193 3.0062C7.373 3.0062 7.58467 3.12948 7.68533 3.34023C7.82456 3.63147 7.6985 3.97853 7.40405 4.11624C7.1096 4.25395 6.7587 4.12973 6.61948 3.83849C6.48025 3.54679 6.60631 3.19927 6.90076 3.06156Z" fill="white"/>
<path fill-rule="evenodd" clip-rule="evenodd" d="M13.9962 4.18231C14.1124 4.04786 14.2775 3.979 14.4431 3.979C14.579 3.979 14.7159 4.02506 14.8269 4.1195C15.0738 4.32886 15.1021 4.69686 14.8904 4.94157C14.6783 5.18581 14.3062 5.21419 14.0593 5.00391C13.8123 4.79502 13.7841 4.42702 13.9962 4.18231Z" fill="white"/>
<path fill-rule="evenodd" clip-rule="evenodd" d="M5.1444 4.21255C5.25682 4.11346 5.39699 4.06461 5.53669 4.06461C5.69897 4.06461 5.8603 4.13067 5.97648 4.25954C6.19332 4.4996 6.17215 4.86806 5.92897 5.08253C5.68579 5.297 5.31326 5.27607 5.0969 5.03601C4.88006 4.79548 4.90122 4.42702 5.1444 4.21255Z" fill="white"/>
<path fill-rule="evenodd" clip-rule="evenodd" d="M15.3979 5.51567C15.4967 5.4524 15.6087 5.42169 15.7187 5.42169C15.912 5.42169 16.1002 5.5152 16.2135 5.68734C16.3909 5.95764 16.3128 6.31866 16.04 6.49359C15.7672 6.66898 15.4017 6.59221 15.2248 6.32192C15.047 6.05208 15.1246 5.69106 15.3979 5.51567Z" fill="white"/>
<path fill-rule="evenodd" clip-rule="evenodd" d="M3.78787 5.80645C3.89981 5.62919 4.09219 5.53149 4.28928 5.53149C4.39558 5.53149 4.50282 5.55987 4.59972 5.61942C4.87676 5.78923 4.96143 6.14932 4.78928 6.42241V6.42195C4.61712 6.6955 4.254 6.77925 3.97742 6.60944C3.70132 6.43963 3.61665 6.08047 3.78787 5.80645Z" fill="white"/>
<path fill-rule="evenodd" clip-rule="evenodd" d="M2.94449 7.71667C3.01599 7.45754 3.254 7.28726 3.5127 7.28726C3.56444 7.28726 3.61712 7.29424 3.66886 7.3082C3.98306 7.39333 4.16792 7.71388 4.08137 8.02465C3.99576 8.33496 3.67121 8.5178 3.35748 8.4322C3.04327 8.34799 2.85842 8.02698 2.94449 7.71667Z" fill="white"/>
<path fill-rule="evenodd" clip-rule="evenodd" d="M10.2521 4.33537C10.2789 4.14044 10.4473 3.99808 10.6416 3.99808C10.659 3.99808 10.6764 3.99901 10.6947 4.0018C10.9097 4.03018 11.0611 4.22558 11.032 4.43819C11.0038 4.65126 10.8053 4.80014 10.5898 4.77176C10.3744 4.74338 10.2239 4.54798 10.2521 4.33537Z" fill="white"/>
<path fill-rule="evenodd" clip-rule="evenodd" d="M9.29021 4.01484C9.31044 4.01205 9.3302 4.01065 9.34995 4.01065C9.54092 4.01065 9.70837 4.14836 9.738 4.3405C9.77093 4.55265 9.6237 4.75083 9.40922 4.7834C9.19473 4.81597 8.99435 4.67035 8.96096 4.4582C8.9285 4.24559 9.07573 4.0474 9.29021 4.01484Z" fill="white"/>
<path fill-rule="evenodd" clip-rule="evenodd" d="M11.5259 4.5773C11.5917 4.43308 11.7347 4.34747 11.8848 4.34747C11.9379 4.34747 11.9929 4.35864 12.0456 4.3819C12.2436 4.46983 12.3321 4.69965 12.2432 4.89552C12.1538 5.09138 11.9219 5.17884 11.7234 5.09091C11.5254 5.00345 11.4374 4.77316 11.5259 4.5773Z" fill="white"/>
<path fill-rule="evenodd" clip-rule="evenodd" d="M7.94685 4.42143C8.00094 4.39585 8.05786 4.38422 8.1143 4.38422C8.26152 4.38422 8.40264 4.46703 8.4699 4.60706C8.56256 4.80106 8.47883 5.03275 8.28222 5.1244C8.08608 5.21605 7.85184 5.13324 7.7587 4.93924C7.66651 4.74477 7.75024 4.51309 7.94685 4.42143Z" fill="white"/>
<path fill-rule="evenodd" clip-rule="evenodd" d="M6.77563 5.18859C6.85042 5.12253 6.94402 5.08997 7.03716 5.08997C7.14534 5.08997 7.25306 5.13416 7.33067 5.22023C7.4746 5.38027 7.46096 5.62638 7.29868 5.76874C7.13688 5.91156 6.88805 5.89807 6.74412 5.73757C6.59972 5.57753 6.61336 5.33142 6.77563 5.18859Z" fill="white"/>
<path fill-rule="evenodd" clip-rule="evenodd" d="M13.6124 6.05767C13.6778 6.01534 13.7526 5.99533 13.826 5.99533C13.9544 5.99533 14.0809 6.05767 14.1562 6.17212C14.2742 6.35216 14.222 6.59315 14.0405 6.70993C13.8589 6.8267 13.6152 6.77506 13.4967 6.59548C13.3786 6.41497 13.4309 6.17444 13.6124 6.05767Z" fill="white"/>
<path fill-rule="evenodd" clip-rule="evenodd" d="M14.2554 7.17143C14.2921 7.16026 14.3302 7.15561 14.3669 7.15561C14.5362 7.15561 14.6928 7.26494 14.7432 7.43475C14.8043 7.64038 14.6853 7.85671 14.477 7.91719C14.2695 7.97814 14.0503 7.86044 13.9887 7.65434C13.928 7.44871 14.047 7.23237 14.2554 7.17143Z" fill="white"/>
<path fill-rule="evenodd" clip-rule="evenodd" d="M5.30903 7.52499C5.35701 7.35239 5.51505 7.2384 5.68815 7.2384C5.72248 7.2384 5.75776 7.24306 5.7921 7.25283C6.00188 7.30958 6.12465 7.52313 6.06726 7.73015C6.01035 7.93765 5.79351 8.05907 5.58467 8.00231C5.37488 7.94556 5.25165 7.73201 5.30903 7.52499Z" fill="white"/>
<path fill-rule="evenodd" clip-rule="evenodd" d="M10.1745 5.35424C10.1914 5.23049 10.2992 5.13977 10.4224 5.13977C10.4327 5.13977 10.444 5.1407 10.4558 5.1421C10.5927 5.15978 10.6881 5.28446 10.6707 5.41984C10.6524 5.55522 10.5259 5.65013 10.3895 5.63245C10.2521 5.61384 10.1562 5.48916 10.1745 5.35424Z" fill="white"/>
<path fill-rule="evenodd" clip-rule="evenodd" d="M9.56303 5.14998C9.57573 5.14812 9.58843 5.14719 9.6016 5.14719C9.72248 5.14719 9.82926 5.23465 9.84807 5.35701C9.86877 5.49192 9.77564 5.618 9.63923 5.63847C9.50282 5.65941 9.37535 5.56636 9.35419 5.43144C9.33255 5.29746 9.42662 5.17138 9.56303 5.14998Z" fill="white"/>
<path fill-rule="evenodd" clip-rule="evenodd" d="M10.9849 5.50775C11.0268 5.4161 11.1171 5.36166 11.2126 5.36166C11.2469 5.36166 11.2822 5.36864 11.3156 5.384C11.4412 5.43936 11.4976 5.58591 11.4412 5.71059C11.3848 5.8348 11.2366 5.89063 11.111 5.8348C10.9845 5.77898 10.9285 5.63243 10.9849 5.50775Z" fill="white"/>
<path fill-rule="evenodd" clip-rule="evenodd" d="M7.96331 5.8967C8.01082 5.85436 8.07009 5.83389 8.12935 5.83389C8.19803 5.83389 8.2667 5.86181 8.31562 5.9167C8.40781 6.01859 8.39887 6.17444 8.29586 6.26563C8.19332 6.35635 8.03528 6.34751 7.94309 6.24562C7.85184 6.14374 7.8603 5.98742 7.96331 5.8967Z" fill="white"/>
<path fill-rule="evenodd" clip-rule="evenodd" d="M12.3119 6.4494C12.3537 6.42241 12.4008 6.40985 12.4473 6.40985C12.5296 6.40985 12.6096 6.4494 12.6571 6.52244C12.7324 6.63688 12.6994 6.79041 12.5837 6.86438C12.468 6.93882 12.3137 6.90625 12.2385 6.79134C12.1627 6.67689 12.1961 6.52337 12.3119 6.4494Z" fill="white"/>
<path fill-rule="evenodd" clip-rule="evenodd" d="M7.38852 6.57267C7.43556 6.49777 7.5174 6.4559 7.60113 6.4559C7.64628 6.4559 7.69191 6.46846 7.73283 6.49312C7.84995 6.5657 7.8857 6.71783 7.81326 6.83367C7.74036 6.94951 7.58608 6.98534 7.46896 6.91369C7.35183 6.84111 7.31562 6.68852 7.38852 6.57267Z" fill="white"/>
<path fill-rule="evenodd" clip-rule="evenodd" d="M12.7206 7.15794C12.7446 7.15096 12.7681 7.14771 12.7916 7.14771C12.8998 7.14771 12.9991 7.21749 13.031 7.32496C13.0701 7.45615 12.9944 7.5934 12.8627 7.63201C12.73 7.67063 12.5913 7.59572 12.5522 7.46499C12.5127 7.3338 12.5884 7.19655 12.7206 7.15794Z" fill="white"/>
<path fill-rule="evenodd" clip-rule="evenodd" d="M7.03104 7.38263C7.06162 7.27283 7.16181 7.20026 7.27187 7.20026C7.29351 7.20026 7.31562 7.20351 7.33772 7.2091C7.47084 7.24538 7.54939 7.38123 7.5127 7.51336C7.47648 7.64502 7.33866 7.72225 7.20555 7.68642C7.07244 7.65014 6.99436 7.51429 7.03104 7.38263Z" fill="white"/>
<path fill-rule="evenodd" clip-rule="evenodd" d="M16.3631 7.18679C16.4182 7.17051 16.4741 7.1626 16.5296 7.1626C16.7841 7.1626 17.0188 7.32729 17.095 7.58131C17.1872 7.89022 17.0089 8.21402 16.6966 8.30521C16.3843 8.39593 16.0564 8.2196 15.9643 7.91116C15.8725 7.60224 16.0508 7.27751 16.3631 7.18679Z" fill="white"/>
<path d="M19.9356 10.0614H18.5611V15.5H19.9356V10.0614Z" fill="white"/>
<path fill-rule="evenodd" clip-rule="evenodd" d="M1.92757 12.7803C1.92757 12.4053 2.23566 12.1006 2.61524 12.1006H6.77328C6.87018 12.1001 6.95202 12.0633 7.01646 12.001C7.07949 11.9373 7.11665 11.8563 7.11665 11.7605C7.11618 11.6642 7.07902 11.5837 7.01646 11.5204C6.95202 11.4581 6.87018 11.4213 6.77328 11.4208H2.75259C2.37253 11.4213 2.03387 11.572 1.7841 11.8182C1.53434 12.0666 1.38241 12.4025 1.38147 12.7803C1.38241 13.1585 1.53434 13.4939 1.7841 13.7424C2.03387 13.9899 2.37253 14.1397 2.75259 14.1397H8.49624V15.5H2.75259C2.75212 15.5 2.75212 15.5 2.75165 15.5C1.9953 15.5 1.30527 15.1939 0.810915 14.7026C0.315148 14.2122 0.00658736 13.5288 0.00705773 12.7803C0.00658736 12.0317 0.314678 11.3483 0.810444 10.8579C1.30527 10.3662 1.99577 10.061 2.75212 10.061H6.77328C7.24553 10.0605 7.67968 10.2513 7.98824 10.5583C8.29868 10.864 8.492 11.2929 8.492 11.76C8.49248 12.228 8.29868 12.657 7.98824 12.9626C7.68015 13.2683 7.24647 13.4595 6.77423 13.4595H2.61524C2.23566 13.46 1.92757 13.1562 1.92757 12.7803Z" fill="white"/>
<path fill-rule="evenodd" clip-rule="evenodd" d="M11.158 12.7802C11.158 13.1562 11.4652 13.4599 11.8453 13.4599H16.0028C16.0997 13.4604 16.182 13.4972 16.246 13.5595C16.309 13.6237 16.3462 13.7042 16.3462 13.8C16.3462 13.8959 16.309 13.9768 16.246 14.0401C16.182 14.1029 16.0992 14.1392 16.0028 14.1397H11.9821C11.6011 14.1397 11.2634 13.9898 11.0132 13.7423C10.7643 13.4939 10.6119 13.1589 10.6115 12.7802C10.6115 12.4025 10.7643 12.0666 11.0132 11.8181C11.2639 11.5716 11.6011 11.4213 11.9821 11.4208H17.7248V10.0614H11.9821C11.9817 10.0614 11.9817 10.0614 11.9807 10.0614C11.2248 10.0614 10.5343 10.3671 10.0405 10.8579C9.54422 11.3483 9.23613 12.0317 9.2366 12.7802C9.2366 13.5288 9.54422 14.2122 10.0405 14.7026C10.5348 15.1939 11.2258 15.5005 11.9821 15.5H16.0028C16.476 15.5005 16.9097 15.3088 17.2187 15.0017C17.5278 14.6961 17.7215 14.2671 17.7211 13.8C17.7215 13.3329 17.5278 12.904 17.2187 12.5983C16.9097 12.2918 16.4765 12.1005 16.0042 12.1005H11.8453C11.4652 12.1005 11.158 12.4053 11.158 12.7802Z" fill="white"/>
<path fill-rule="evenodd" clip-rule="evenodd" d="M20 7.87578C20 8.33031 19.6275 8.69878 19.1679 8.69878C18.7088 8.69878 18.3368 8.33031 18.3368 7.87578C18.3368 7.42172 18.7093 7.05325 19.1679 7.05325C19.6275 7.05279 20 7.42125 20 7.87578Z" fill="white"/>
<path fill-rule="evenodd" clip-rule="evenodd" d="M14.7756 2.06225C14.7756 2.51678 14.4031 2.88524 13.9436 2.88524C13.4845 2.88524 13.1124 2.51678 13.1124 2.06225C13.1124 1.60818 13.485 1.23972 13.9436 1.23972C14.4031 1.23925 14.7756 1.60771 14.7756 2.06225Z" fill="white"/>
<path fill-rule="evenodd" clip-rule="evenodd" d="M13.3674 5.42121C13.3674 5.20673 13.1914 5.0332 12.9751 5.0332C12.7582 5.0332 12.5828 5.2072 12.5828 5.42121C12.5828 5.63568 12.7587 5.80921 12.9751 5.80921C13.1919 5.80967 13.3674 5.63568 13.3674 5.42121Z" fill="white"/>
<path fill-rule="evenodd" clip-rule="evenodd" d="M6.59784 6.45636C6.59784 6.24189 6.42192 6.06836 6.20555 6.06836C5.98871 6.06836 5.81326 6.24236 5.81326 6.45636C5.81326 6.67083 5.98918 6.84437 6.20555 6.84437C6.42192 6.84483 6.59784 6.67083 6.59784 6.45636Z" fill="white"/>
<path fill-rule="evenodd" clip-rule="evenodd" d="M11.6566 6.04511C11.6566 5.90833 11.7686 5.79761 11.9069 5.79761C12.0452 5.79761 12.1571 5.90833 12.1571 6.04511C12.1571 6.18189 12.0452 6.29261 11.9069 6.29261C11.7686 6.29215 11.6566 6.18142 11.6566 6.04511Z" fill="white"/>
<path fill-rule="evenodd" clip-rule="evenodd" d="M8.56491 5.63196C8.56491 5.49519 8.67686 5.38446 8.81515 5.38446C8.95343 5.38446 9.06538 5.49519 9.06538 5.63196C9.06538 5.76874 8.95343 5.87947 8.81515 5.87947C8.67686 5.87947 8.56491 5.76874 8.56491 5.63196Z" fill="white"/>
</g>
<defs>
<clipPath id="clip0_16_28">
<rect width="20" height="15" fill="white" transform="translate(0 0.5)"/>
</clipPath>
</defs>
</svg>
