<?xml version="1.0" encoding="UTF-8" standalone="no"?>
<!-- Created with Inkscape (http://www.inkscape.org/) -->

<svg
   xmlns:dc="http://purl.org/dc/elements/1.1/"
   xmlns:cc="http://creativecommons.org/ns#"
   xmlns:rdf="http://www.w3.org/1999/02/22-rdf-syntax-ns#"
   xmlns:svg="http://www.w3.org/2000/svg"
   xmlns="http://www.w3.org/2000/svg"
   xmlns:sodipodi="http://sodipodi.sourceforge.net/DTD/sodipodi-0.dtd"
   xmlns:inkscape="http://www.inkscape.org/namespaces/inkscape"
   version="1.1"
   id="svg3767"
   width="812.24219"
   height="858.35406"
   viewBox="0 0 812.24219 858.35406"
   sodipodi:docname="oscar_color_2.svg"
   inkscape:version="0.92.3 (2405546, 2018-03-11)"
   inkscape:export-filename="/home/alpegon/Downloads/oscar.svg.png"
   inkscape:export-xdpi="96"
   inkscape:export-ydpi="96">
  <metadata
     id="metadata3773">
    <rdf:RDF>
      <cc:Work
         rdf:about="">
        <dc:format>image/svg+xml</dc:format>
        <dc:type
           rdf:resource="http://purl.org/dc/dcmitype/StillImage" />
        <dc:title />
      </cc:Work>
    </rdf:RDF>
  </metadata>
  <defs
     id="defs3771">
    <clipPath
       clipPathUnits="userSpaceOnUse"
       id="clipPath3791">
      <rect
         id="rect3793"
         width="889.93365"
         height="1053.7251"
         x="591.46918"
         y="125.57346" />
    </clipPath>
    <filter
       style="color-interpolation-filters:sRGB"
       id="filter3935"
       inkscape:label="filter0" />
  </defs>
  <sodipodi:namedview
     pagecolor="#ffffff"
     bordercolor="#666666"
     borderopacity="1"
     objecttolerance="10"
     gridtolerance="10"
     guidetolerance="10"
     inkscape:pageopacity="0"
     inkscape:pageshadow="2"
     inkscape:window-width="1920"
     inkscape:window-height="1052"
     id="namedview3769"
     showgrid="false"
     inkscape:zoom="0.2"
     inkscape:cx="-1388.9457"
     inkscape:cy="729.99841"
     inkscape:window-x="0"
     inkscape:window-y="0"
     inkscape:window-maximized="1"
     inkscape:current-layer="svg3767" />
  <path
     style="fill:#000000"
     d="m 624.45012,637.09745 c 2.52992,-53.49346 134.3443,-104.30088 195.60229,-121.699 1.83365,-72.95687 -5.1847,-188.88462 -4.26597,-251.02893 4.46038,-62.76279 349.09796,-86.77451 389.15786,-26.17495 5.4058,86.28429 9.083,154.35969 15.3188,241.49264 62.9484,-3.56818 202.4547,31.81241 213.7971,74.15769 20.1701,132.99609 -789.32457,191.95546 -809.61008,83.25255 z m 785.45418,-82.43691 c -15.1691,-35.50212 -152.1628,-57.20973 -188.3397,-56.53315 1.2461,18.05699 2.3246,42.47989 2.3416,56.77573 -129.2935,34.98569 -182.4808,48.46253 -402.13428,37.9279 -2.58266,-41.99512 -0.50214,-24.44455 -2.22039,-53.21681 -50.94381,10.02663 -173.42596,70.38498 -166.8416,91.25235 -0.33119,63.49942 740.49427,37.473 757.19437,-76.20602 z M 844.80056,505.28606 c 81.37,9.49631 186.83414,22.13569 355.90104,-23.54008 -6.3632,-95.80117 -9.8643,-150.30476 -13.3361,-223.60404 -31.5666,43.03929 -224.0881,61.84458 -349.48488,33.21226 1.24256,67.7066 5.3988,143.39797 6.91994,213.93186 z M 1174.1623,240.79197 c -2.2237,-31.37143 -304.77226,-32.54996 -329.62971,23.47352 -1.03296,31.34077 328.54791,27.31462 329.62971,-23.47352 z M 767.36029,827.71645 c 12.00843,-18.1528 39.6476,-29.59781 59.17863,-19.82939 33.68407,9.32816 31.21418,63.95846 58.83797,65.35779 63.1868,12.20468 80.0142,-43.38327 128.08051,-58.1451 21.1558,-8.01576 38.1391,-4.81495 54.2038,1.874 40.0304,27.96995 88.0306,39.83499 124.5661,38.60689 41.6445,-10.64569 36.9932,-40.08127 49.5789,-60.24126 30.4788,-32.73413 68.2975,-28.52448 76.9187,-0.41453 12.6652,39.27215 -19.5238,60.00807 -70.1022,79.37574 -35.841,8.64459 -65.6155,11.69876 -104.0293,2.43607 -14.5398,-3.85965 -74.2945,-25.96899 -95.1399,-40.66494 -8.0594,-4.94301 -21.4226,-2.53218 -26.2825,1.76453 -25.24863,16.84387 -62.69755,46.64169 -79.67131,53.36267 -33.28931,12.67735 -56.50784,15.12792 -88.8385,12.3149 -18.28552,-1.55351 -48.52792,-6.78785 -65.5,-17.2669 -22.42127,-16.73934 -31.96188,-35.6762 -21.8009,-58.53047 z M 828.23682,688.8669 c 6.63754,-0.37816 14.63843,1.0995 19.43789,1.49901 1.50436,35.16667 1.64786,103.67098 4.65826,144.50191 -14.54377,-14.53523 -13.06252,-11.63985 -23.28378,-17.20628 -1.48959,-49.25401 -3.62578,-90.25669 -0.81237,-128.79464 z m 10.93486,211.05106 c 0.40581,-1.67581 18.04539,-4.29986 18.61988,-1.03845 11.10847,63.06343 25.4222,95.40214 46.13037,114.32519 81.85968,39.0669 229.38727,44.3421 293.51137,-14.98355 22.6414,-30.8028 32.3588,-85.863 26.9845,-126.9136 2.5062,-2.0731 17.5945,-2.32055 19.8056,0.21185 6.1527,49.25166 -6.8477,117.05245 -35.4455,143.9474 -74.2131,59.8217 -232.94729,58.4188 -316.81608,13.0295 -32.73221,-24.7895 -52.04481,-118.75772 -52.79014,-128.57834 z m 68.77553,-178.30772 c 8.67507,-13.39536 20.33905,-12.30017 28.34577,-1.56152 11.54978,34.96405 11.13275,52.65574 3.65178,81.35728 -6.86048,6.53025 -15.76587,5.11105 -22.84077,0.18952 -16.9706,-18.86059 -13.79699,-67.06847 -9.15678,-79.98528 z m 93.02029,201.18469 c 0,0 64.9006,0.26276 79.0812,-5.20229 1.7342,6.72946 1.252,8.47898 0.7636,13.01831 -30.6376,6.8861 -78.973,4.6023 -78.973,4.6023 z m 113.4086,-202.78629 c 5.6741,-15.41531 21.7451,-24.39048 32.9037,-3.35987 3.2764,20.17219 7.3164,48.00433 3.3703,70.36419 -2.8561,8.7717 -17.4292,13.41038 -28.7774,2.98592 -11.3837,-28.99771 -10.5817,-44.12854 -7.4966,-69.99024 z m 118.6227,-62.17923 c 2.0913,16.80212 10.3094,161.00417 10.0626,173.01357 -8.3863,4.65862 -9.9271,8.68128 -17.8651,19.95852 -4.3581,-42.80376 -8.8151,-151.84497 -12.7047,-188.69889 6.6818,-1.3376 13.5241,-3.28471 20.5072,-4.2732 z"
     id="path3785"
     inkscape:connector-curvature="0"
     clip-path="url(#clipPath3791)"
     transform="rotate(2,6552.1288,-17359.182)"
     sodipodi:nodetypes="ccccccccccccccccccccccccccccccccccccccccccccsccccccccccccccccccccccccccc"
     inkscape:export-xdpi="96"
     inkscape:export-ydpi="96" />
  <path
     style="opacity:0.9;fill:#326de6;fill-opacity:1;stroke-width:1.81990516"
     d="m 332.49842,307.19054 c -19.36684,-1.35366 -64.83513,-6.42774 -85.53554,-9.54542 l -20.92891,-3.15211 V 189.62596 c 0,-57.67689 0.44465,-105.311118 0.98811,-105.853858 0.54347,-0.54274 6.16165,0.2201 12.48485,1.6952 83.02815,19.369148 211.43371,20.186118 281.35171,1.79007 22.0069,-5.79023 35.3549,-10.95272 44.8639,-17.35161 l 7.9133,-5.32516 1.2475,23.13311 c 2.4157,44.794708 5.3935,193.750178 3.9021,195.183958 -3.4412,3.308 -75.2154,16.20729 -116.1638,20.87697 -24.2281,2.76294 -108.00177,4.96211 -130.12322,3.4159 z"
     id="path4907"
     inkscape:connector-curvature="0"
     inkscape:export-xdpi="96"
     inkscape:export-ydpi="96" />
  <path
     style="opacity:0.9;fill:#326de6;fill-opacity:1;stroke-width:1.81990516"
     d="m 346.14771,77.052792 c -65.47583,-2.76712 -111.92417,-12.0774 -111.92417,-22.43449 0,-1.42716 2.66161,-4.84593 5.91469,-7.59726 20.83053,-17.6177 71.49154,-27.66098 148.32085,-29.40386 79.89336,-1.81237 152.49746,6.54183 169.71386,19.52818 3.8291,2.88831 4.1919,4.04535 2.6465,8.4396 -5.8576,16.65617 -53.8557,28.04903 -133.0892,31.59016 -21.8486,0.97646 -41.7721,1.6599 -44.27447,1.51874 -2.50237,-0.14116 -19.291,-0.87964 -37.30806,-1.64107 z"
     id="path4909"
     inkscape:connector-curvature="0"
     inkscape:export-xdpi="96"
     inkscape:export-ydpi="96" />
  <path
     style="opacity:0.9;fill:#326de6;fill-opacity:1;stroke-width:1.81990516"
     d="M 223.30411,453.75487 C 116.1543,448.7241 42.987372,435.44868 31.424372,418.94019 c -3.98769,-5.69323 -3.62349,-7.71148 2.68896,-14.90097 16.50923,-18.80296 87.721688,-53.33682 143.047418,-69.36959 8.58668,-2.48832 16.74897,-4.52422 18.13842,-4.52422 2.03894,0 2.52627,5.0905 2.52627,26.38862 0,19.88402 0.56074,26.39492 2.27488,26.41416 1.25118,0.014 17.96228,1.21913 37.13577,2.67798 95.6109,7.27474 172.58355,7.22439 230.62255,-0.15083 23.1549,-2.94238 90.5933,-16.04479 118.5166,-23.02624 l 16.3791,-4.09516 -0.265,-28.00865 -0.265,-28.00865 14.3409,1.1059 c 17.9736,1.38602 63.8435,10.54762 89.0138,17.77873 39.2584,11.27846 69.7846,26.14583 78.3331,38.15108 l 3.7091,5.209 -3.6503,7.15521 c -21.7157,42.56628 -160.88,73.48658 -369.5768,82.11458 -50.20143,2.07545 -145.86138,2.02725 -191.09003,-0.0963 z"
     id="path4911"
     inkscape:connector-curvature="0"
     inkscape:export-xdpi="96"
     inkscape:export-ydpi="96" />
  <path
     style="fill:#e67d32;fill-opacity:0;stroke-width:0.22748815"
     d="m 267.15321,714.46425 c -4.57265,-0.3097 -11.87011,-1.4464 -17.446,-2.7175 -5.84815,-1.3331 -10.59125,-5.4271 -15.08465,-13.0203 -2.00223,-3.3834 -3.91116,-7.3732 -7.64488,-15.9782 -3.64288,-8.3957 -3.82978,-8.8126 -5.14175,-11.46839 l -1.05783,-2.14136 -0.24637,-15.48898 c -0.27463,-17.26538 -0.14265,-54.45385 0.3771,-106.25675 0.18077,-18.01706 0.33042,-39.79906 0.33257,-48.40444 l 0.004,-15.64614 1.42181,0.11979 c 2.59544,0.21869 17.0796,0.87279 27.81042,1.25592 39.90483,1.42475 83.7411,1.42505 127.16588,8.7e-4 33.65393,-1.10374 72.84693,-3.38391 102.09673,-5.9398 1.6015,-0.13994 2.958,-0.20826 3.0144,-0.15182 0.056,0.0564 0.077,47.34925 0.045,105.09515 l -0.057,104.99255 -4.6635,-2.088 c -14.0266,-6.2802 -28.3693,-14.59777 -39.7366,-23.04395 -3.2085,-2.38398 -13.3639,-6.13517 -20.434,-7.54788 -4.642,-0.92754 -7.7965,-1.22903 -12.8531,-1.22843 -8.1681,9.1e-4 -12.9217,0.83042 -23.6754,4.13113 -6.27495,1.92601 -9.7781,3.32543 -15.26356,6.09737 -8.60532,4.34848 -15.95324,9.39426 -31.46861,21.60946 -13.13654,10.3423 -20.0889,15.155 -27.75289,19.2115 -12.66861,6.7055 -25.80936,9.5519 -39.74204,8.6082 z m 35.74027,-114.30353 c 1.8288,-0.43108 3.89956,-1.4112 5.52361,-2.61442 1.40784,-1.04303 1.09422,-0.26545 3.16234,-7.84073 2.12408,-7.78027 3.62278,-15.59162 4.34279,-22.63507 0.4331,-4.23669 0.36512,-14.51335 -0.12715,-19.22275 -0.90896,-8.69581 -2.98028,-18.84079 -6.1454,-30.09905 -0.9096,-3.23546 -1.49975,-4.14522 -4.58083,-7.06172 -2.02331,-1.91523 -4.41203,-3.32738 -6.81881,-4.03111 -1.80979,-0.52917 -5.01484,-0.52917 -6.82464,0 -3.70095,1.08213 -7.34458,3.8539 -10.42356,7.92935 -2.04459,2.70629 -4.16727,13.22897 -5.19547,25.75542 -0.37202,4.53221 -0.37367,17.53979 -0.003,21.72512 1.22514,13.82474 4.03082,23.73674 8.79535,31.07257 1.53032,2.3562 2.34854,3.1507 4.56828,4.4359 3.66493,2.12194 6.32159,2.90749 9.87902,2.92114 1.36972,0.005 3.01081,-0.1375 3.84723,-0.33465 z"
     id="path4919"
     inkscape:connector-curvature="0"
     inkscape:export-xdpi="96"
     inkscape:export-ydpi="96" />
  <path
     style="opacity:0.95;fill:#ffccaa;fill-opacity:1;stroke-width:1.25"
     d="m 262.5909,665.57694 c -21.31175,-3.46306 -23.8707,-5.74279 -35.4204,-31.55542 l -5.8296,-13.02868 v -68.7191 -68.71909 l 10.3125,0.80196 c 40.5467,3.15314 144.04282,1.98719 210.31254,-2.36931 46.2208,-3.03851 135.8197,-12.3727 142.684,-14.86448 1.9658,-0.71359 2.7146,12.91183 4.1864,76.17737 0.6717,28.875 1.5788,62.21248 2.0158,74.08328 l 0.7944,21.58326 -4.8403,4.5657 c -2.6622,2.51114 -8.4966,6.29866 -12.9653,8.41674 -7.7462,3.67146 -8.8244,3.8447 -23.125,3.71545 -32.0285,-0.28949 -72.2318,-13.85718 -104.3131,-35.20323 -13.728,-9.13422 -24.0079,-12.8811 -37.6021,-13.70529 -21.11688,-1.2803 -41.77019,6.71617 -67.01912,25.9482 -30.4068,23.16075 -39.94682,28.65875 -55.44072,31.95102 -7.76951,1.65092 -17.04644,2.01092 -23.75,0.92162 z m 45.79774,-69.41377 c 1.02359,-1.0236 3.07659,-6.30526 4.56222,-11.73703 3.99403,-14.60299 3.8742,-42.65699 -0.25308,-59.25095 -2.51083,-10.09494 -3.65504,-12.57765 -7.63317,-16.5625 -3.70759,-3.71385 -5.63177,-4.6875 -9.26373,-4.6875 -10.73202,0 -16.06776,6.207 -18.7989,21.86853 -5.34281,30.63791 0.75102,64.07478 12.87966,70.67076 5.32521,2.89604 15.4749,2.73079 18.507,-0.30131 z m 206.7218,-2.05924 c 6.8387,-3.64471 7.9086,-8.32037 7.9063,-34.55374 0,-43.47452 -4.3512,-55.625 -19.9032,-55.625 -3.7475,0 -5.5884,0.98679 -9.9182,5.31663 -3.0095,3.0095 -5.9664,7.48456 -6.8139,10.3125 -0.8235,2.74773 -1.777,13.43337 -2.119,23.74587 -0.5709,17.2189 -0.3605,19.75981 2.5767,31.11621 1.7592,6.80142 4.0966,13.73705 5.1944,15.41251 4.1494,6.33276 15.3296,8.40391 23.0769,4.27502 z"
     id="path833"
     inkscape:connector-curvature="0"
     inkscape:export-xdpi="96"
     inkscape:export-ydpi="96" />
  <path
     style="opacity:0.95;fill:#ffccaa;fill-opacity:1;stroke-width:1.25"
     d="m 390.08915,837.62755 c -38.95136,-3.4785 -76.33828,-12.5711 -108.97497,-26.503 -13.35529,-5.701 -15.40181,-7.0051 -19.95234,-12.7135 -15.7221,-19.7226 -25.8681,-47.0332 -33.42063,-89.9603 l -2.39268,-13.5995 12.81934,0.8587 c 25.62052,1.7162 59.30179,-4.5116 80.04803,-14.8013 6.1875,-3.0689 25.78252,-15.14909 43.54449,-26.84497 17.76196,-11.69587 34.28535,-21.92228 36.71875,-22.72535 7.3992,-2.44198 14.6775,-0.59281 25.8335,6.56344 16.6413,10.67496 59.5108,30.26475 83.9033,38.34068 17.0946,5.6598 33.4903,8.0844 55,8.1335 10.3125,0.024 20.8593,-0.375 23.4375,-0.8856 l 4.6875,-0.9284 v 11.0269 c 0,34.7659 -11.5765,76.7718 -27.6664,100.3895 -4.8922,7.1811 -14.6856,14.5072 -29.8336,22.3179 -21.0888,10.8738 -48.8887,18.3429 -79.2796,21.3002 -15.1678,1.476 -48.1153,1.4919 -64.47219,0.031 z m 48.37709,-107.4931 c 3.8312,-0.6235 7.2594,-1.4274 7.6184,-1.7863 0.7794,-0.7794 0.7178,-11.8781 -0.07,-12.6662 -0.3023,-0.3022 -4.4306,0.011 -9.174,0.6971 -4.7435,0.6856 -22.5463,1.2578 -39.562,1.2714 l -30.93749,0.025 v 6.8281 6.8281 l 11.5625,0.4975 c 15.98779,0.688 52.13939,-0.3235 60.56279,-1.6945 z"
     id="path835"
     inkscape:connector-curvature="0"
     inkscape:export-xdpi="96"
     inkscape:export-ydpi="96" />
</svg>
