<?xml version="1.0" encoding="utf-8"?>
<!-- Generator: Adobe Illustrator 25.3.1, SVG Export Plug-In . SVG Version: 6.00 Build 0)  -->
<svg version="1.1" id="Capa_1" xmlns="http://www.w3.org/2000/svg" xmlns:xlink="http://www.w3.org/1999/xlink" x="0px" y="0px"
	 viewBox="0 0 1280 800" style="enable-background:new 0 0 1280 800;" xml:space="preserve">
<style type="text/css">
	.st0{display:none;}
	.st1{fill:#053A8B;}
	.st2{fill:url(#SVGID_1_);}
	.st3{fill:url(#SVGID_2_);}
	.st4{display:inline;}
	.st5{display:inline;fill-rule:evenodd;clip-rule:evenodd;}
</style>
<g id="Fondo" class="st0">
</g>
<g id="Guías">
</g>
<g id="Primer_plano">
	<g>
		<path class="st1" d="M711.7,600.1c0,4.3-33.8-24.7-61.2-44.5c0,0,62.5-117.1,17.3-335.2c0,0,81.4,24.9,80.9,28.8
			C745.8,272.1,711.8,382.8,711.7,600.1z"/>
		
			<linearGradient id="SVGID_1_" gradientUnits="userSpaceOnUse" x1="2150.7473" y1="1889.6107" x2="2397.7773" y2="1889.6107" gradientTransform="matrix(1 0 0 -1 -1692 2274.989)">
			<stop  offset="0" style="stop-color:#FFFFFF"/>
			<stop  offset="1" style="stop-color:#073B8A"/>
		</linearGradient>
		<path class="st2" d="M579.3,494.5c-158.8-104.3,30.3-251.8,30.3-251.8s-309.1,175.4-42.4,267.9c21.3,7.4,76.5,14.6,138.5,17.5
			C705.8,528.1,616,518.6,579.3,494.5z"/>
		
			<linearGradient id="SVGID_2_" gradientUnits="userSpaceOnUse" x1="2127.175" y1="1949.7535" x2="2342.5225" y2="1949.7535" gradientTransform="matrix(1 0 0 -1 -1692 2274.989)">
			<stop  offset="0" style="stop-color:#FFFFFF"/>
			<stop  offset="1" style="stop-color:#073B8A"/>
		</linearGradient>
		<path class="st3" d="M586.2,240c0,0,74,6.2,63.3,55.7c-18,83.1-205.1,114.2-213.9,114.8c-9.4,0.6,171.2-47.4,187.1-125.3
			C630,248.4,586.2,240,586.2,240z"/>
		<g class="st0">
			<path class="st4" d="M478.8,576.5l6.8-31.8h4.2l6.8,31.8h-4.2l-1.4-8h-6.4l-1.5,8H478.8z M485.1,565.3h5.3l-2.7-14.4L485.1,565.3
				z"/>
			<path class="st4" d="M506.8,576.8c-2.9,0-5-0.9-6.2-2.7c-1.3-1.8-1.9-4.5-1.9-8.1v-10.7c0-1.4,0.1-2.7,0.3-3.8
				c0.1-1.1,0.4-2.1,0.8-3.1c0.4-1,0.9-1.7,1.6-2.3c0.6-0.6,1.4-1,2.5-1.4c1-0.3,2.1-0.5,3.5-0.5c2.9,0,5.1,0.8,6.4,2.3
				c1.3,1.5,1.9,3.8,1.9,7v1.2h-4.2v-1c0-0.9,0-1.6-0.1-2.2c-0.1-0.6-0.1-1.2-0.3-1.6c-0.1-0.5-0.4-1-0.7-1.2
				c-0.3-0.3-0.7-0.5-1.2-0.7c-0.5-0.1-1.1-0.3-1.8-0.3c-0.5,0-1,0.1-1.4,0.2c-0.4,0.1-0.8,0.3-1.1,0.5c-0.3,0.2-0.5,0.5-0.8,0.8
				s-0.3,0.7-0.5,1s-0.2,0.8-0.3,1.3c-0.1,0.5-0.1,1-0.1,1.4c0,0.4,0,1,0,1.6v11.8c0,2.5,0.3,4.2,0.9,5.3c0.6,1,1.7,1.6,3.3,1.6
				s2.8-0.6,3.4-1.7c0.6-1.2,1-3,1-5.5v-2.3h-4v-3.1h8.1v15.7H513l-0.4-3.6C511.5,575.5,509.6,576.8,506.8,576.8z"/>
			<polygon class="st4" points="519.7,576.5 519.7,544.7 532,544.7 532,548 524.2,548 524.2,558.4 530.6,558.4 530.6,561.6 
				524.2,561.6 524.2,573.3 532.2,573.3 532.2,576.5 			"/>
			<polygon class="st4" points="535.3,576.5 535.3,544.7 538.3,544.7 547.3,565.7 547.3,544.7 551,544.7 551,576.5 548.2,576.5 
				539,554.7 539,576.5 			"/>
			<path class="st4" d="M563.4,576.8c-1.3,0-2.5-0.2-3.5-0.5c-1-0.3-1.8-0.8-2.5-1.4c-0.6-0.6-1.2-1.4-1.6-2.3
				c-0.4-0.9-0.7-1.8-0.8-2.9c-0.1-1-0.2-2.1-0.2-3.4v-11.2c0-1.4,0.1-2.5,0.3-3.6c0.1-1,0.4-2.1,0.8-2.9c0.4-0.9,0.9-1.6,1.6-2.3
				c0.6-0.6,1.4-1,2.5-1.4s2.1-0.5,3.5-0.5c2.9,0,4.9,0.8,6.2,2.3c1.2,1.6,1.8,3.8,1.8,6.8v2.5h-4.2v-2.3c0-0.5,0-0.9,0-1.2
				c0-0.3,0-0.6,0-1c0-0.4-0.1-0.8-0.1-1c-0.1-0.2-0.1-0.5-0.2-0.8s-0.2-0.5-0.3-0.8c-0.1-0.2-0.3-0.3-0.5-0.5
				c-0.2-0.2-0.4-0.3-0.7-0.5c-0.2-0.1-0.5-0.2-0.9-0.2c-0.3-0.1-0.7-0.1-1.1-0.1c-0.6,0-1.2,0.1-1.6,0.2c-0.5,0.1-0.8,0.3-1.2,0.6
				c-0.3,0.3-0.5,0.6-0.8,1c-0.2,0.3-0.3,0.8-0.4,1.3c-0.1,0.5-0.1,1.1-0.2,1.6c0,0.5-0.1,1.1-0.1,1.8V567c0,2.4,0.3,4,0.9,5
				c0.6,1,1.6,1.4,3.2,1.4c0.6,0,1.1-0.1,1.5-0.2c0.4-0.1,0.8-0.3,1.1-0.6c0.3-0.3,0.5-0.6,0.7-0.9c0.2-0.3,0.3-0.8,0.3-1.3
				c0.1-0.5,0.1-1,0.1-1.5c0-0.5,0.1-1.1,0.1-1.8v-2.3h4.2v2.4c0,1.2-0.1,2.3-0.2,3.3s-0.4,1.8-0.8,2.7c-0.3,0.8-0.9,1.5-1.4,2.1
				c-0.6,0.5-1.4,1-2.3,1.3C565.7,576.6,564.6,576.8,563.4,576.8z"/>
			<rect x="575.4" y="544.7" class="st5" width="4.4" height="31.8"/>
			<path class="st4" d="M582.7,576.5l6.8-31.8h4.2l6.8,31.8h-4.2l-1.4-8h-6.4l-1.5,8H582.7z M589,565.3h5.3l-2.7-14.4L589,565.3z"/>
		</g>
		<g class="st0">
			<path class="st4" d="M527.5,615.2l6.8-31.8h4.3l6.8,31.8h-4.2l-1.4-8h-6.4l-1.5,8H527.5z M533.8,604.1h5.3l-2.7-14.4L533.8,604.1
				z"/>
			<g class="st4">
				<polygon points="480.6,615.2 480.6,583.4 492.9,583.4 492.9,586.7 484.9,586.7 484.9,597.3 491.4,597.3 491.4,600.4 
					484.9,600.4 484.9,612.1 492.9,612.1 492.9,615.2 				"/>
				<path d="M503.5,615.6c-2.7,0-4.7-0.8-6.1-2.5c-1.4-1.6-2.2-3.9-2.3-6.8l4-1.1c0.3,4.6,1.8,6.8,4.5,6.8c1.2,0,2-0.3,2.6-1
					c0.6-0.6,0.9-1.6,0.9-2.8c0-0.7-0.1-1.3-0.3-1.8c-0.1-0.5-0.4-1.1-0.8-1.6c-0.3-0.5-0.7-1-1-1.3s-0.8-0.8-1.4-1.4l-5.3-4.7
					c-1.1-1-1.8-2-2.3-3.1c-0.5-1.1-0.8-2.4-0.8-4c0-2.3,0.7-4.1,2-5.4c1.4-1.3,3.1-1.9,5.5-2c2.5-0.1,4.4,0.6,5.7,2
					c1.3,1.4,2.1,3.4,2.3,6.3l-3.8,1c-0.1-0.7-0.1-1.3-0.2-1.8c-0.1-0.5-0.3-1.1-0.4-1.6c-0.2-0.5-0.5-1-0.8-1.3
					c-0.3-0.3-0.7-0.6-1.2-0.8c-0.5-0.2-1-0.3-1.7-0.2c-2.3,0.1-3.5,1.3-3.5,3.5c0,1,0.1,1.7,0.5,2.3c0.3,0.6,0.9,1.3,1.6,2l5.4,4.7
					c1.4,1.2,2.5,2.6,3.3,4c0.8,1.4,1.2,3.1,1.2,4.9c0,2.3-0.7,4.2-2.1,5.5C507.6,614.9,505.8,615.6,503.5,615.6z"/>
				<polygon points="517.4,615.2 517.4,586.7 511.6,586.7 511.6,583.4 527.4,583.4 527.4,586.7 521.9,586.7 521.9,615.2 				"/>
				<polygon points="550.1,615.2 550.1,586.7 544.3,586.7 544.3,583.4 560.1,583.4 560.1,586.7 554.5,586.7 554.5,615.2 				"/>
				<path d="M560.2,615.2l6.8-31.8h4.3l6.8,31.8h-4.2l-1.4-8h-6.4l-1.5,8H560.2z M566.5,604.1h5.3l-2.7-14.4L566.5,604.1z"/>
				<polygon points="580.8,615.2 580.8,583.4 585.2,583.4 585.2,612.1 593.3,612.1 593.3,615.2 				"/>
				<path d="M604.3,615.2v-31.8h6.9c3.4,0,5.9,0.8,7.2,2.3c1.4,1.6,2.1,4,2.1,7.4v11.7c0,3.5-0.7,6.1-2.1,7.8
					c-1.4,1.7-3.7,2.6-7,2.6H604.3L604.3,615.2z M608.8,612.1h2.5c0.7,0,1.3-0.1,1.8-0.2c0.5-0.1,1-0.3,1.3-0.5s0.6-0.5,0.9-0.9
					c0.2-0.4,0.4-0.8,0.5-1.2c0.1-0.3,0.2-0.8,0.3-1.5c0.1-0.7,0.1-1.2,0.1-1.7c0-0.5,0-1.2,0-2.1v-10.3c0-0.8,0-1.4-0.1-1.9
					c0-0.5-0.1-1-0.1-1.6s-0.2-1-0.3-1.3c-0.1-0.3-0.3-0.7-0.6-1c-0.2-0.3-0.5-0.5-0.9-0.7s-0.8-0.3-1.3-0.3c-0.5-0.1-1-0.1-1.7-0.1
					h-2.4L608.8,612.1L608.8,612.1z"/>
				<polygon points="624.6,615.2 624.6,583.4 636.9,583.4 636.9,586.7 629,586.7 629,597.3 635.4,597.3 635.4,600.4 629,600.4 
					629,612.1 637,612.1 637,615.2 				"/>
			</g>
		</g>
		<g class="st0">
			<rect x="480.8" y="623" class="st5" width="4.4" height="31.8"/>
			<polygon class="st4" points="489.8,654.7 489.8,623 492.8,623 501.8,644 501.8,623 505.5,623 505.5,654.7 502.7,654.7 493.5,633 
				493.5,654.7 			"/>
			<polygon class="st4" points="515.6,654.7 508.5,623 512.6,623 517.6,646.3 522.4,623 526.4,623 519.4,654.7 			"/>
			<polygon class="st4" points="529.4,654.7 529.4,623 541.7,623 541.7,626.2 533.8,626.2 533.8,636.7 540.2,636.7 540.2,639.8 
				533.8,639.8 533.8,651.5 541.8,651.5 541.8,654.7 			"/>
			<path class="st4" d="M552.3,655c-2.7,0-4.7-0.8-6.1-2.5c-1.4-1.6-2.2-3.9-2.3-6.8l4-1.1c0.3,4.5,1.8,6.8,4.5,6.8
				c1.2,0,2-0.3,2.6-1c0.6-0.6,0.9-1.6,0.9-2.8c0-0.7-0.1-1.3-0.3-1.8c-0.1-0.5-0.4-1.1-0.8-1.6c-0.3-0.5-0.8-1-1-1.3
				c-0.3-0.3-0.8-0.8-1.4-1.4l-5.3-4.7c-1.1-1-1.8-2-2.3-3.1c-0.5-1.1-0.8-2.4-0.8-4c0-2.3,0.7-4.1,2-5.4c1.4-1.3,3.1-1.9,5.5-2
				c2.5-0.1,4.4,0.6,5.7,2c1.3,1.4,2.1,3.4,2.3,6.3l-3.8,1c-0.1-0.7-0.1-1.3-0.2-1.8c-0.1-0.5-0.2-1.1-0.4-1.6
				c-0.2-0.5-0.5-1-0.8-1.3s-0.7-0.6-1.2-0.8c-0.5-0.2-1-0.3-1.7-0.2c-2.3,0.1-3.5,1.3-3.5,3.5c0,1,0.1,1.7,0.5,2.3
				c0.3,0.6,0.9,1.3,1.6,2l5.3,4.7c1.4,1.2,2.5,2.6,3.3,4c0.8,1.4,1.2,3.1,1.2,4.9c0,2.3-0.7,4.2-2.1,5.5
				C556.4,654.3,554.6,655,552.3,655z"/>
			<polygon class="st4" points="566.2,654.7 566.2,626.2 560.4,626.2 560.4,623 576.3,623 576.3,626.2 570.7,626.2 570.7,654.7 			
				"/>
			<rect x="578.4" y="623" class="st5" width="4.4" height="31.8"/>
			<path class="st4" d="M595.1,655.1c-2.9,0-5-0.9-6.2-2.7c-1.3-1.8-1.9-4.5-1.9-8.1v-10.7c0-1.4,0.1-2.7,0.3-3.8
				c0.1-1.1,0.4-2.1,0.8-3c0.4-1,0.9-1.7,1.6-2.3c0.6-0.5,1.4-1,2.4-1.4s2.1-0.5,3.5-0.5c2.9,0,5.1,0.8,6.4,2.3
				c1.3,1.5,1.9,3.8,1.9,7v1.2h-4.2v-1c0-0.9,0-1.6-0.1-2.2c-0.1-0.6-0.1-1.2-0.3-1.6c-0.1-0.5-0.4-1-0.7-1.2
				c-0.3-0.3-0.7-0.5-1.2-0.7c-0.5-0.1-1.1-0.3-1.8-0.3c-0.5,0-1,0.1-1.4,0.2s-0.8,0.3-1.1,0.5c-0.3,0.2-0.5,0.5-0.8,0.8
				c-0.2,0.3-0.3,0.7-0.5,1s-0.2,0.8-0.3,1.3c-0.1,0.5-0.1,1-0.1,1.4c0,0.4,0,1,0,1.6v11.8c0,2.5,0.3,4.2,0.9,5.3s1.7,1.6,3.3,1.6
				c1.6,0,2.8-0.5,3.4-1.7c0.6-1.2,0.9-3,0.9-5.5v-2.2h-4V639h8.1v15.7h-2.8l-0.5-3.7C599.7,653.7,597.9,655.1,595.1,655.1z"/>
			<path class="st4" d="M606.3,654.7l6.8-31.8h4.3l6.8,31.8h-4.2l-1.4-8H612l-1.5,8H606.3z M612.5,643.5h5.3l-2.7-14.4L612.5,643.5z
				"/>
			<path class="st4" d="M634.8,655c-1.3,0-2.5-0.2-3.5-0.5s-1.8-0.8-2.5-1.4c-0.6-0.6-1.2-1.4-1.6-2.3c-0.4-0.9-0.7-1.8-0.8-2.9
				s-0.2-2.1-0.2-3.4v-11.2c0-1.4,0.1-2.5,0.2-3.6s0.4-2.1,0.8-2.9c0.4-0.9,0.9-1.6,1.6-2.3c0.6-0.6,1.4-1,2.5-1.4s2.1-0.5,3.5-0.5
				c2.9,0,4.9,0.8,6.2,2.3c1.2,1.6,1.8,3.8,1.8,6.8v2.5h-4.2v-2.3c0-0.5,0-0.9,0-1.2c0-0.3,0-0.6-0.1-1c0-0.4-0.1-0.8-0.1-1
				c-0.1-0.2-0.1-0.5-0.2-0.8c-0.1-0.3-0.2-0.5-0.3-0.8c-0.1-0.1-0.3-0.3-0.5-0.5c-0.2-0.2-0.4-0.3-0.7-0.4
				c-0.3-0.1-0.5-0.2-0.9-0.3s-0.7-0.1-1.1-0.1c-0.6,0-1.2,0.1-1.6,0.2c-0.5,0.1-0.8,0.3-1.2,0.6c-0.3,0.3-0.5,0.6-0.8,1
				c-0.2,0.3-0.3,0.8-0.4,1.4c-0.1,0.5-0.1,1.1-0.2,1.6c0,0.5-0.1,1.2-0.1,1.8v12.6c0,2.4,0.3,4,0.9,5c0.6,1,1.6,1.4,3.2,1.4
				c0.6,0,1.1-0.1,1.5-0.2s0.8-0.3,1-0.6c0.3-0.3,0.5-0.6,0.7-0.9c0.1-0.3,0.3-0.8,0.3-1.3s0.1-1,0.1-1.5s0-1.1,0-1.8v-2.5h4.2v2.3
				c0,1.2-0.1,2.3-0.2,3.3c-0.1,1-0.4,1.8-0.8,2.7s-0.9,1.5-1.4,2.1c-0.6,0.5-1.4,1-2.3,1.3C637,654.9,636,655,634.8,655z"/>
			<rect x="646.7" y="623" class="st5" width="4.4" height="31.8"/>
			<path class="st4" d="M663.9,655c-1.6,0-2.9-0.3-4.1-0.8c-1.1-0.5-2-1.2-2.7-2.1c-0.7-0.9-1.2-2-1.4-3.2c-0.3-1.2-0.5-2.7-0.5-4.3
				v-12c0-3.3,0.7-5.8,2-7.5c1.4-1.7,3.6-2.5,6.6-2.5s5.3,0.9,6.6,2.6s2.1,4.2,2.1,7.5v12c0,3.3-0.7,5.9-2.1,7.6
				C669.1,654.1,666.9,655,663.9,655z M661.7,651.2c0.5,0.3,1.3,0.4,2.2,0.4c0.9,0,1.6-0.1,2.1-0.4c0.5-0.3,1-0.7,1.3-1.2
				s0.5-1.2,0.6-1.8c0.1-0.7,0.1-1.5,0.1-2.5v-13.9c0-1-0.1-1.8-0.1-2.4c-0.1-0.6-0.3-1.2-0.6-1.8c-0.3-0.5-0.8-1-1.3-1.2
				c-0.5-0.3-1.3-0.3-2.1-0.3c-0.9,0-1.6,0.1-2.2,0.3c-0.5,0.3-1,0.6-1.3,1.2c-0.3,0.5-0.5,1.2-0.6,1.8c-0.1,0.6-0.1,1.4-0.1,2.4
				v13.9c0,1,0.1,1.8,0.1,2.5s0.3,1.2,0.6,1.8S661.1,650.9,661.7,651.2z M662.8,620.3l2.3-7.8h4.2l-4.4,7.8H662.8z"/>
			<polygon class="st4" points="676.5,654.7 676.5,623 679.5,623 688.5,644 688.5,623 692.2,623 692.2,654.7 689.4,654.7 680.1,633 
				680.1,654.7 			"/>
		</g>
	</g>
</g>
</svg>
