<svg id="Capa_1" data-name="Capa 1" xmlns="http://www.w3.org/2000/svg" viewBox="0 0 12.718 10.15"><defs><style>.cls-1{fill:#ffdb00;}.cls-2{fill:#1d1d1b;}</style></defs><rect class="cls-1" x="-0.01" width="12.713" height="10.15"/><polygon class="cls-2" points="2.314 4.633 2.19 4.633 2.19 3.965 2.188 3.965 1.927 4.297 1.904 4.297 1.64 3.965 1.639 3.965 1.639 4.633 1.514 4.633 1.514 3.776 1.631 3.776 1.916 4.128 2.199 3.776 2.314 3.776 2.314 4.633"/><rect class="cls-2" x="2.521" y="3.776" width="0.123" height="0.857"/><polygon class="cls-2" points="3.653 4.633 3.548 4.633 2.976 3.973 2.976 4.633 2.859 4.633 2.859 3.776 2.958 3.776 3.537 4.44 3.537 3.776 3.653 3.776 3.653 4.633"/><rect class="cls-2" x="3.86" y="3.776" width="0.123" height="0.857"/><path class="cls-2" d="M4.6,3.964a.285.285,0,0,0-.2-.089.16.16,0,0,0-.1.028.082.082,0,0,0-.039.071.107.107,0,0,0,.028.072.32.32,0,0,0,.092.071l.094.056a.268.268,0,0,1,.157.237.255.255,0,0,1-.018.095.2.2,0,0,1-.051.074.23.23,0,0,1-.079.048.309.309,0,0,1-.1.017.377.377,0,0,1-.231-.078V4.41a.362.362,0,0,0,.036.042.187.187,0,0,0,.034.029.323.323,0,0,0,.078.041.246.246,0,0,0,.081.014.145.145,0,0,0,.1-.032.1.1,0,0,0,.038-.081.129.129,0,0,0-.029-.078.286.286,0,0,0-.084-.071l-.092-.056a.4.4,0,0,1-.124-.1A.205.205,0,0,1,4.151,4,.239.239,0,0,1,4.169,3.9a.212.212,0,0,1,.052-.073.218.218,0,0,1,.077-.05.309.309,0,0,1,.1-.017.341.341,0,0,1,.1.015.337.337,0,0,1,.1.046Z"/><polygon class="cls-2" points="5.434 3.884 5.135 3.884 5.135 4.633 5.012 4.633 5.012 3.884 4.718 3.884 4.718 3.776 5.434 3.776 5.434 3.884"/><polygon class="cls-2" points="6.058 3.885 5.694 3.885 5.694 4.148 6.045 4.148 6.045 4.256 5.694 4.256 5.694 4.522 6.069 4.522 6.069 4.633 5.571 4.633 5.571 3.777 6.058 3.777 6.058 3.885"/><path class="cls-2" d="M6.44,3.776a.307.307,0,0,1,.206.064.22.22,0,0,1,.075.175.225.225,0,0,1-.036.129.217.217,0,0,1-.107.082l.022.016.018.013.016.016.018.021.026.031q.012.015.024.033l.029.044.038.062a1.141,1.141,0,0,0,.072.109l.037.052.008.01H6.74l-.009-.012L6.7,4.576,6.69,4.559l-.018-.028-.046-.073L6.591,4.4q-.027-.038-.057-.072a.285.285,0,0,0-.051-.047.111.111,0,0,0-.042-.021.311.311,0,0,0-.061,0H6.347v.373H6.225V3.776Zm-.093.375h.136a.121.121,0,0,0,.082-.043A.144.144,0,0,0,6.6,4.019a.125.125,0,0,0-.019-.068.1.1,0,0,0-.047-.046.223.223,0,0,0-.056-.016.661.661,0,0,0-.089,0H6.347Z"/><rect class="cls-2" x="7.003" y="3.776" width="0.123" height="0.857"/><path class="cls-2" d="M7.942,3.8a.441.441,0,0,1,.147.091.449.449,0,0,1,.1.14.464.464,0,0,1,0,.351.433.433,0,0,1-.1.139.459.459,0,0,1-.149.092.5.5,0,0,1-.187.033.479.479,0,0,1-.18-.033.425.425,0,0,1-.272-.4.451.451,0,0,1,.034-.178.409.409,0,0,1,.1-.14A.423.423,0,0,1,7.58,3.8a.476.476,0,0,1,.183-.034A.5.5,0,0,1,7.942,3.8Zm-.314.1a.312.312,0,0,0-.176.168.317.317,0,0,0-.026.132.312.312,0,0,0,.026.128.3.3,0,0,0,.069.1.3.3,0,0,0,.106.068.335.335,0,0,0,.133.025A.361.361,0,0,0,7.893,4.5.316.316,0,0,0,8,4.426a.326.326,0,0,0,.1-.233A.316.316,0,0,0,8,3.965a.348.348,0,0,0-.1-.069.328.328,0,0,0-.131-.025A.367.367,0,0,0,7.628,3.9Z"/><path class="cls-2" d="M1.807,5.113H1.9a.546.546,0,0,1,.069.01.488.488,0,0,1,.117.039.41.41,0,0,1,.208.26.418.418,0,0,1,.016.117.413.413,0,0,1-.021.131.385.385,0,0,1-.059.116.418.418,0,0,1-.091.092.5.5,0,0,1-.119.062l-.045.014-.044.008H1.518V5.113Zm-.167.745h.25l.033,0a.254.254,0,0,0,.037-.01A.272.272,0,0,0,2.05,5.8a.3.3,0,0,0,.069-.069.333.333,0,0,0,.044-.091.339.339,0,0,0,.016-.105.317.317,0,0,0-.046-.17A.293.293,0,0,0,2,5.255a.29.29,0,0,0-.041-.016.213.213,0,0,0-.042-.01H1.64Z"/><polygon class="cls-2" points="2.967 5.221 2.604 5.221 2.604 5.483 2.955 5.483 2.955 5.591 2.604 5.591 2.604 5.858 2.979 5.858 2.979 5.969 2.481 5.969 2.481 5.113 2.967 5.113 2.967 5.221"/><path class="cls-2" d="M4.232,5.3a.761.761,0,0,0-.15-.064.509.509,0,0,0-.145-.021.389.389,0,0,0-.136.024.347.347,0,0,0-.108.068.312.312,0,0,0-.072.1.356.356,0,0,0,0,.261.292.292,0,0,0,.07.1.327.327,0,0,0,.108.067.376.376,0,0,0,.137.023.549.549,0,0,0,.3-.1V5.9a.661.661,0,0,1-.147.058.756.756,0,0,1-.164.018.524.524,0,0,1-.167-.024.417.417,0,0,1-.136-.077A.439.439,0,0,1,3.5,5.364a.449.449,0,0,1,.1-.14.471.471,0,0,1,.33-.128.679.679,0,0,1,.142.016,1.145,1.145,0,0,1,.159.054Z"/><rect class="cls-2" x="4.414" y="5.111" width="0.123" height="0.857"/><polygon class="cls-2" points="5.235 5.221 4.871 5.221 4.871 5.483 5.222 5.483 5.222 5.591 4.871 5.591 4.871 5.858 5.246 5.858 5.246 5.969 4.748 5.969 4.748 5.113 5.235 5.113 5.235 5.221"/><polygon class="cls-2" points="6.196 5.969 6.091 5.969 5.519 5.309 5.519 5.969 5.402 5.969 5.402 5.111 5.501 5.111 6.079 5.776 6.079 5.111 6.196 5.111 6.196 5.969"/><path class="cls-2" d="M7.131,5.3a.787.787,0,0,0-.149-.064.509.509,0,0,0-.145-.021.368.368,0,0,0-.136.024.329.329,0,0,0-.108.068.3.3,0,0,0-.072.1.339.339,0,0,0-.026.13.347.347,0,0,0,.025.131.309.309,0,0,0,.071.1.327.327,0,0,0,.108.067.376.376,0,0,0,.137.023.558.558,0,0,0,.3-.1V5.9a.669.669,0,0,1-.148.058.756.756,0,0,1-.164.018.524.524,0,0,1-.167-.024.417.417,0,0,1-.136-.077A.431.431,0,0,1,6.4,5.724a.442.442,0,0,1-.041-.186.44.44,0,0,1,.281-.408A.476.476,0,0,1,6.827,5.1a.67.67,0,0,1,.141.016,1.145,1.145,0,0,1,.159.054Z"/><rect class="cls-2" x="7.313" y="5.111" width="0.123" height="0.857"/><path class="cls-2" d="M8.392,5.969H8.266l-.114-.253H7.787l-.108.253H7.553l.369-.863h.086Zm-.557-.364H8.1L7.96,5.3Z"/><polygon class="cls-2" points="2.003 6.556 1.64 6.556 1.64 6.819 1.991 6.819 1.991 6.927 1.64 6.927 1.64 7.194 2.014 7.194 2.014 7.304 1.517 7.304 1.517 6.448 2.003 6.448 2.003 6.556"/><rect class="cls-2" x="2.539" y="6.447" width="0.123" height="0.857"/><polygon class="cls-2" points="3.671 7.304 3.566 7.304 2.994 6.644 2.994 7.304 2.877 7.304 2.877 6.447 2.976 6.447 3.554 7.112 3.554 6.447 3.671 6.447 3.671 7.304"/><polygon class="cls-2" points="4.674 7.304 4.569 7.304 3.997 6.644 3.997 7.304 3.88 7.304 3.88 6.447 3.979 6.447 4.557 7.112 4.557 6.447 4.674 6.447 4.674 7.304"/><path class="cls-2" d="M5.484,6.469a.446.446,0,0,1,.146.092.4.4,0,0,1,.1.139.457.457,0,0,1,0,.352.4.4,0,0,1-.1.139.481.481,0,0,1-.148.091.526.526,0,0,1-.184.034.48.48,0,0,1-.18-.034.447.447,0,0,1-.143-.091.434.434,0,0,1-.13-.313A.43.43,0,0,1,4.88,6.7a.419.419,0,0,1,.095-.14.442.442,0,0,1,.145-.092.529.529,0,0,1,.368,0Zm-.315.107a.3.3,0,0,0-.106.068.292.292,0,0,0-.07.1.328.328,0,0,0-.025.131A.311.311,0,0,0,4.993,7a.292.292,0,0,0,.07.1.349.349,0,0,0,.106.068A.337.337,0,0,0,5.3,7.2a.346.346,0,0,0,.24-.094.332.332,0,0,0,.1-.234.323.323,0,0,0-.026-.126.347.347,0,0,0-.07-.1.323.323,0,0,0-.1-.068.348.348,0,0,0-.131-.026A.379.379,0,0,0,5.169,6.576Z"/><polygon class="cls-2" points="6.237 7.309 6.21 7.309 5.84 6.447 5.963 6.447 6.221 7.049 6.478 6.447 6.599 6.447 6.237 7.309"/><path class="cls-2" d="M7.459,7.3H7.333l-.114-.252H6.855L6.746,7.3H6.621l.368-.862h.087ZM6.9,6.941h.267l-.138-.31Z"/><path class="cls-2" d="M8.305,6.638a.765.765,0,0,0-.15-.065.538.538,0,0,0-.144-.02.377.377,0,0,0-.137.024.347.347,0,0,0-.108.068.309.309,0,0,0-.071.1.344.344,0,0,0,0,.26.3.3,0,0,0,.071.1.324.324,0,0,0,.108.066.377.377,0,0,0,.137.024.572.572,0,0,0,.3-.1v.14a.6.6,0,0,1-.148.057A.7.7,0,0,1,8,7.316a.524.524,0,0,1-.167-.024A.417.417,0,0,1,7.7,7.215a.431.431,0,0,1-.117-.151.442.442,0,0,1-.041-.186A.418.418,0,0,1,7.574,6.7a.422.422,0,0,1,.1-.141.443.443,0,0,1,.147-.093A.476.476,0,0,1,8,6.436a.61.61,0,0,1,.141.016,1.145,1.145,0,0,1,.159.054Z"/><rect class="cls-2" x="8.487" y="6.447" width="0.123" height="0.857"/><path class="cls-2" d="M9.427,6.469a.446.446,0,0,1,.146.092.433.433,0,0,1,.1.139.457.457,0,0,1,0,.352.433.433,0,0,1-.1.139.481.481,0,0,1-.148.091.526.526,0,0,1-.188.034.478.478,0,0,1-.179-.034.451.451,0,0,1-.144-.091.427.427,0,0,1-.129-.313A.45.45,0,0,1,8.818,6.7a.409.409,0,0,1,.1-.14.442.442,0,0,1,.145-.092.5.5,0,0,1,.184-.033A.509.509,0,0,1,9.427,6.469Zm-.315.107a.311.311,0,0,0-.176.171.328.328,0,0,0-.025.131.311.311,0,0,0,.025.128.292.292,0,0,0,.07.1.333.333,0,0,0,.105.068.373.373,0,0,0,.133.024.338.338,0,0,0,.133-.025A.333.333,0,0,0,9.554,7a.338.338,0,0,0,.025-.13.322.322,0,0,0-.025-.126.332.332,0,0,0-.071-.1.3.3,0,0,0-.105-.068.339.339,0,0,0-.13-.026A.37.37,0,0,0,9.112,6.576Zm.142-.358H9.4l-.135.171H9.172Z"/><polygon class="cls-2" points="10.675 7.304 10.57 7.304 9.998 6.644 9.998 7.304 9.881 7.304 9.881 6.447 9.98 6.447 10.559 7.112 10.559 6.447 10.675 6.447 10.675 7.304"/></svg>